G04 #@! TF.GenerationSoftware,KiCad,Pcbnew,7.0.5-0*
G04 #@! TF.CreationDate,2023-06-09T10:40:46+01:00*
G04 #@! TF.ProjectId,Hashat,48617368-6174-42e6-9b69-6361645f7063,rev?*
G04 #@! TF.SameCoordinates,Original*
G04 #@! TF.FileFunction,Paste,Top*
G04 #@! TF.FilePolarity,Positive*
%FSLAX46Y46*%
G04 Gerber Fmt 4.6, Leading zero omitted, Abs format (unit mm)*
G04 Created by KiCad (PCBNEW 7.0.5-0) date 2023-06-09 10:40:46*
%MOMM*%
%LPD*%
G01*
G04 APERTURE LIST*
G04 Aperture macros list*
%AMRoundRect*
0 Rectangle with rounded corners*
0 $1 Rounding radius*
0 $2 $3 $4 $5 $6 $7 $8 $9 X,Y pos of 4 corners*
0 Add a 4 corners polygon primitive as box body*
4,1,4,$2,$3,$4,$5,$6,$7,$8,$9,$2,$3,0*
0 Add four circle primitives for the rounded corners*
1,1,$1+$1,$2,$3*
1,1,$1+$1,$4,$5*
1,1,$1+$1,$6,$7*
1,1,$1+$1,$8,$9*
0 Add four rect primitives between the rounded corners*
20,1,$1+$1,$2,$3,$4,$5,0*
20,1,$1+$1,$4,$5,$6,$7,0*
20,1,$1+$1,$6,$7,$8,$9,0*
20,1,$1+$1,$8,$9,$2,$3,0*%
G04 Aperture macros list end*
%ADD10C,0.010000*%
%ADD11C,0.100000*%
%ADD12O,3.800000X1.200000*%
%ADD13O,2.500000X1.200000*%
%ADD14C,2.000000*%
%ADD15R,2.700000X1.600000*%
%ADD16RoundRect,0.250000X-1.100000X0.325000X-1.100000X-0.325000X1.100000X-0.325000X1.100000X0.325000X0*%
%ADD17R,0.800000X0.700000*%
%ADD18RoundRect,0.250000X0.475000X-0.250000X0.475000X0.250000X-0.475000X0.250000X-0.475000X-0.250000X0*%
%ADD19RoundRect,0.250000X0.650000X-0.325000X0.650000X0.325000X-0.650000X0.325000X-0.650000X-0.325000X0*%
%ADD20RoundRect,0.135000X0.000000X-0.295000X0.000000X0.295000X0.000000X0.295000X0.000000X-0.295000X0*%
%ADD21RoundRect,0.067500X0.067500X-0.362500X0.067500X0.362500X-0.067500X0.362500X-0.067500X-0.362500X0*%
%ADD22R,2.000000X3.100000*%
G04 APERTURE END LIST*
D10*
X78693945Y-82742678D02*
X78133945Y-82742678D01*
X78133945Y-82212678D01*
X78703945Y-82212678D01*
X78693945Y-82742678D01*
G36*
X78693945Y-82742678D02*
G01*
X78133945Y-82742678D01*
X78133945Y-82212678D01*
X78703945Y-82212678D01*
X78693945Y-82742678D01*
G37*
X78693945Y-84042678D02*
X78133945Y-84042678D01*
X78133945Y-83512678D01*
X78703945Y-83512678D01*
X78693945Y-84042678D01*
G36*
X78693945Y-84042678D02*
G01*
X78133945Y-84042678D01*
X78133945Y-83512678D01*
X78703945Y-83512678D01*
X78693945Y-84042678D01*
G37*
X78713945Y-81452678D02*
X78153945Y-81452678D01*
X78153945Y-80922678D01*
X78723945Y-80922678D01*
X78713945Y-81452678D01*
G36*
X78713945Y-81452678D02*
G01*
X78153945Y-81452678D01*
X78153945Y-80922678D01*
X78723945Y-80922678D01*
X78713945Y-81452678D01*
G37*
X78713945Y-85342678D02*
X78153945Y-85342678D01*
X78153945Y-84812678D01*
X78723945Y-84812678D01*
X78713945Y-85342678D01*
G36*
X78713945Y-85342678D02*
G01*
X78153945Y-85342678D01*
X78153945Y-84812678D01*
X78723945Y-84812678D01*
X78713945Y-85342678D01*
G37*
X82903945Y-85202678D02*
X78923945Y-85202678D01*
X78923945Y-83282678D01*
X82903945Y-83282678D01*
X82903945Y-85202678D01*
G36*
X82903945Y-85202678D02*
G01*
X78923945Y-85202678D01*
X78923945Y-83282678D01*
X82903945Y-83282678D01*
X82903945Y-85202678D01*
G37*
X82913945Y-82922678D02*
X78933945Y-82922678D01*
X78933945Y-81002678D01*
X82913945Y-81002678D01*
X82913945Y-82922678D01*
G36*
X82913945Y-82922678D02*
G01*
X78933945Y-82922678D01*
X78933945Y-81002678D01*
X82913945Y-81002678D01*
X82913945Y-82922678D01*
G37*
D11*
X115036400Y-89894000D02*
X113636400Y-89894000D01*
X113636400Y-88434000D01*
X115036400Y-88434000D01*
X115036400Y-89894000D01*
G36*
X115036400Y-89894000D02*
G01*
X113636400Y-89894000D01*
X113636400Y-88434000D01*
X115036400Y-88434000D01*
X115036400Y-89894000D01*
G37*
X118336400Y-89894000D02*
X116036400Y-89894000D01*
X116036400Y-88434000D01*
X118336400Y-88434000D01*
X118336400Y-89894000D01*
G36*
X118336400Y-89894000D02*
G01*
X116036400Y-89894000D01*
X116036400Y-88434000D01*
X118336400Y-88434000D01*
X118336400Y-89894000D01*
G37*
X121036400Y-89894000D02*
X118736400Y-89894000D01*
X118736400Y-88434000D01*
X121036400Y-88434000D01*
X121036400Y-89894000D01*
G36*
X121036400Y-89894000D02*
G01*
X118736400Y-89894000D01*
X118736400Y-88434000D01*
X121036400Y-88434000D01*
X121036400Y-89894000D01*
G37*
X115036400Y-87794000D02*
X113636400Y-87794000D01*
X113636400Y-86574000D01*
X115036400Y-86574000D01*
X115036400Y-87794000D01*
G36*
X115036400Y-87794000D02*
G01*
X113636400Y-87794000D01*
X113636400Y-86574000D01*
X115036400Y-86574000D01*
X115036400Y-87794000D01*
G37*
X118336400Y-87794000D02*
X116036400Y-87794000D01*
X116036400Y-86574000D01*
X118336400Y-86574000D01*
X118336400Y-87794000D01*
G36*
X118336400Y-87794000D02*
G01*
X116036400Y-87794000D01*
X116036400Y-86574000D01*
X118336400Y-86574000D01*
X118336400Y-87794000D01*
G37*
X121036400Y-87794000D02*
X118736400Y-87794000D01*
X118736400Y-86574000D01*
X121036400Y-86574000D01*
X121036400Y-87794000D01*
G36*
X121036400Y-87794000D02*
G01*
X118736400Y-87794000D01*
X118736400Y-86574000D01*
X121036400Y-86574000D01*
X121036400Y-87794000D01*
G37*
X115036400Y-86034000D02*
X113636400Y-86034000D01*
X113636400Y-84574000D01*
X115036400Y-84574000D01*
X115036400Y-86034000D01*
G36*
X115036400Y-86034000D02*
G01*
X113636400Y-86034000D01*
X113636400Y-84574000D01*
X115036400Y-84574000D01*
X115036400Y-86034000D01*
G37*
X118336400Y-86034000D02*
X116036400Y-86034000D01*
X116036400Y-84574000D01*
X118336400Y-84574000D01*
X118336400Y-86034000D01*
G36*
X118336400Y-86034000D02*
G01*
X116036400Y-86034000D01*
X116036400Y-84574000D01*
X118336400Y-84574000D01*
X118336400Y-86034000D01*
G37*
X121036400Y-86034000D02*
X118736400Y-86034000D01*
X118736400Y-84574000D01*
X121036400Y-84574000D01*
X121036400Y-86034000D01*
G36*
X121036400Y-86034000D02*
G01*
X118736400Y-86034000D01*
X118736400Y-84574000D01*
X121036400Y-84574000D01*
X121036400Y-86034000D01*
G37*
D10*
X86950364Y-77768114D02*
X86380364Y-77768114D01*
X86390364Y-77238114D01*
X86950364Y-77238114D01*
X86950364Y-77768114D01*
G36*
X86950364Y-77768114D02*
G01*
X86380364Y-77768114D01*
X86390364Y-77238114D01*
X86950364Y-77238114D01*
X86950364Y-77768114D01*
G37*
X86950364Y-76468114D02*
X86380364Y-76468114D01*
X86390364Y-75938114D01*
X86950364Y-75938114D01*
X86950364Y-76468114D01*
G36*
X86950364Y-76468114D02*
G01*
X86380364Y-76468114D01*
X86390364Y-75938114D01*
X86950364Y-75938114D01*
X86950364Y-76468114D01*
G37*
X86930364Y-79058114D02*
X86360364Y-79058114D01*
X86370364Y-78528114D01*
X86930364Y-78528114D01*
X86930364Y-79058114D01*
G36*
X86930364Y-79058114D02*
G01*
X86360364Y-79058114D01*
X86370364Y-78528114D01*
X86930364Y-78528114D01*
X86930364Y-79058114D01*
G37*
X86930364Y-75168114D02*
X86360364Y-75168114D01*
X86370364Y-74638114D01*
X86930364Y-74638114D01*
X86930364Y-75168114D01*
G36*
X86930364Y-75168114D02*
G01*
X86360364Y-75168114D01*
X86370364Y-74638114D01*
X86930364Y-74638114D01*
X86930364Y-75168114D01*
G37*
X86160364Y-76698114D02*
X82180364Y-76698114D01*
X82180364Y-74778114D01*
X86160364Y-74778114D01*
X86160364Y-76698114D01*
G36*
X86160364Y-76698114D02*
G01*
X82180364Y-76698114D01*
X82180364Y-74778114D01*
X86160364Y-74778114D01*
X86160364Y-76698114D01*
G37*
X86150364Y-78978114D02*
X82170364Y-78978114D01*
X82170364Y-77058114D01*
X86150364Y-77058114D01*
X86150364Y-78978114D01*
G36*
X86150364Y-78978114D02*
G01*
X82170364Y-78978114D01*
X82170364Y-77058114D01*
X86150364Y-77058114D01*
X86150364Y-78978114D01*
G37*
D12*
X80159000Y-63006000D03*
D13*
X87369000Y-63936000D03*
X87369000Y-69136000D03*
D14*
X90619000Y-69136000D03*
D12*
X80159000Y-72866000D03*
D15*
X93489000Y-88471000D03*
X93489000Y-85471000D03*
D16*
X90660929Y-76805214D03*
X90660929Y-79755214D03*
D17*
X83976445Y-85052678D03*
X83976445Y-83754378D03*
X83976445Y-82490978D03*
X83976445Y-81192678D03*
D18*
X93398000Y-67876000D03*
X93398000Y-65976000D03*
D19*
X90519000Y-88406000D03*
X90519000Y-85456000D03*
D20*
X113736400Y-91168600D03*
X114216400Y-91168600D03*
X114696400Y-91168600D03*
X115176400Y-91168600D03*
X115656400Y-91168600D03*
X116136400Y-91168600D03*
X116616400Y-91168600D03*
X117096400Y-91168600D03*
X117576400Y-91168600D03*
X118056400Y-91168600D03*
X118536400Y-91168600D03*
X119016400Y-91168600D03*
X119496400Y-91168600D03*
X119976400Y-91168600D03*
X120456400Y-91168600D03*
X120936400Y-91168600D03*
D21*
X120936400Y-83299400D03*
X120456400Y-83299400D03*
D20*
X119976400Y-83299400D03*
X119496400Y-83299400D03*
X119016400Y-83299400D03*
X118536400Y-83299400D03*
X118056400Y-83299400D03*
X117576400Y-83299400D03*
X117096400Y-83299400D03*
X116616400Y-83299400D03*
X116136400Y-83299400D03*
X115656400Y-83299400D03*
X115176400Y-83299400D03*
X114696400Y-83299400D03*
X114216400Y-83299400D03*
X113736400Y-83299400D03*
D17*
X81107864Y-74928114D03*
X81107864Y-76226414D03*
X81107864Y-77489814D03*
X81107864Y-78788114D03*
D22*
X78917000Y-90286000D03*
X87237000Y-90286000D03*
D16*
X87236000Y-80606000D03*
X87236000Y-83556000D03*
X94070929Y-76845214D03*
X94070929Y-79795214D03*
M02*
