G04 #@! TF.GenerationSoftware,KiCad,Pcbnew,7.0.5-0*
G04 #@! TF.CreationDate,2023-06-09T10:40:46+01:00*
G04 #@! TF.ProjectId,Hashat,48617368-6174-42e6-9b69-6361645f7063,rev?*
G04 #@! TF.SameCoordinates,Original*
G04 #@! TF.FileFunction,Paste,Bot*
G04 #@! TF.FilePolarity,Positive*
%FSLAX46Y46*%
G04 Gerber Fmt 4.6, Leading zero omitted, Abs format (unit mm)*
G04 Created by KiCad (PCBNEW 7.0.5-0) date 2023-06-09 10:40:46*
%MOMM*%
%LPD*%
G01*
G04 APERTURE LIST*
G04 Aperture macros list*
%AMRoundRect*
0 Rectangle with rounded corners*
0 $1 Rounding radius*
0 $2 $3 $4 $5 $6 $7 $8 $9 X,Y pos of 4 corners*
0 Add a 4 corners polygon primitive as box body*
4,1,4,$2,$3,$4,$5,$6,$7,$8,$9,$2,$3,0*
0 Add four circle primitives for the rounded corners*
1,1,$1+$1,$2,$3*
1,1,$1+$1,$4,$5*
1,1,$1+$1,$6,$7*
1,1,$1+$1,$8,$9*
0 Add four rect primitives between the rounded corners*
20,1,$1+$1,$2,$3,$4,$5,0*
20,1,$1+$1,$4,$5,$6,$7,0*
20,1,$1+$1,$6,$7,$8,$9,0*
20,1,$1+$1,$8,$9,$2,$3,0*%
G04 Aperture macros list end*
%ADD10C,0.001000*%
%ADD11O,3.800000X1.200000*%
%ADD12O,2.500000X1.200000*%
%ADD13C,2.000000*%
%ADD14RoundRect,0.135000X0.135000X0.185000X-0.135000X0.185000X-0.135000X-0.185000X0.135000X-0.185000X0*%
%ADD15R,1.100000X0.600000*%
%ADD16RoundRect,0.140000X-0.140000X-0.170000X0.140000X-0.170000X0.140000X0.170000X-0.140000X0.170000X0*%
%ADD17RoundRect,0.250000X0.550000X-1.500000X0.550000X1.500000X-0.550000X1.500000X-0.550000X-1.500000X0*%
%ADD18RoundRect,0.140000X0.170000X-0.140000X0.170000X0.140000X-0.170000X0.140000X-0.170000X-0.140000X0*%
%ADD19R,0.400000X1.100000*%
%ADD20R,1.000000X0.600000*%
%ADD21RoundRect,0.135000X0.185000X-0.135000X0.185000X0.135000X-0.185000X0.135000X-0.185000X-0.135000X0*%
%ADD22RoundRect,0.135000X-0.185000X0.135000X-0.185000X-0.135000X0.185000X-0.135000X0.185000X0.135000X0*%
%ADD23RoundRect,0.007874X-0.112126X0.292126X-0.112126X-0.292126X0.112126X-0.292126X0.112126X0.292126X0*%
%ADD24R,1.400000X1.200000*%
%ADD25R,1.100000X0.400000*%
%ADD26RoundRect,0.140000X0.140000X0.170000X-0.140000X0.170000X-0.140000X-0.170000X0.140000X-0.170000X0*%
%ADD27RoundRect,0.250000X-0.250000X-0.475000X0.250000X-0.475000X0.250000X0.475000X-0.250000X0.475000X0*%
%ADD28RoundRect,0.140000X-0.170000X0.140000X-0.170000X-0.140000X0.170000X-0.140000X0.170000X0.140000X0*%
%ADD29RoundRect,0.135000X-0.135000X-0.185000X0.135000X-0.185000X0.135000X0.185000X-0.135000X0.185000X0*%
%ADD30RoundRect,0.250000X-0.875000X-1.025000X0.875000X-1.025000X0.875000X1.025000X-0.875000X1.025000X0*%
%ADD31RoundRect,0.250000X-0.475000X0.250000X-0.475000X-0.250000X0.475000X-0.250000X0.475000X0.250000X0*%
%ADD32RoundRect,0.250000X0.475000X-0.250000X0.475000X0.250000X-0.475000X0.250000X-0.475000X-0.250000X0*%
G04 APERTURE END LIST*
D10*
X88889691Y-97703200D02*
X88519691Y-97703200D01*
X88519691Y-97453200D01*
X88889691Y-97453200D01*
X88889691Y-97703200D01*
G36*
X88889691Y-97703200D02*
G01*
X88519691Y-97703200D01*
X88519691Y-97453200D01*
X88889691Y-97453200D01*
X88889691Y-97703200D01*
G37*
X85859691Y-97703200D02*
X85489691Y-97703200D01*
X85489691Y-97453200D01*
X85859691Y-97453200D01*
X85859691Y-97703200D01*
G36*
X85859691Y-97703200D02*
G01*
X85489691Y-97703200D01*
X85489691Y-97453200D01*
X85859691Y-97453200D01*
X85859691Y-97703200D01*
G37*
X88889691Y-98353200D02*
X88519691Y-98353200D01*
X88519691Y-98103200D01*
X88889691Y-98103200D01*
X88889691Y-98353200D01*
G36*
X88889691Y-98353200D02*
G01*
X88519691Y-98353200D01*
X88519691Y-98103200D01*
X88889691Y-98103200D01*
X88889691Y-98353200D01*
G37*
X85859691Y-98353200D02*
X85489691Y-98353200D01*
X85489691Y-98103200D01*
X85859691Y-98103200D01*
X85859691Y-98353200D01*
G36*
X85859691Y-98353200D02*
G01*
X85489691Y-98353200D01*
X85489691Y-98103200D01*
X85859691Y-98103200D01*
X85859691Y-98353200D01*
G37*
X88309691Y-98613200D02*
X87299691Y-98613200D01*
X87299691Y-97163200D01*
X88309691Y-97163200D01*
X88309691Y-98613200D01*
G36*
X88309691Y-98613200D02*
G01*
X87299691Y-98613200D01*
X87299691Y-97163200D01*
X88309691Y-97163200D01*
X88309691Y-98613200D01*
G37*
X87089691Y-98613200D02*
X86079691Y-98613200D01*
X86079691Y-97163200D01*
X87089691Y-97163200D01*
X87089691Y-98613200D01*
G36*
X87089691Y-98613200D02*
G01*
X86079691Y-98613200D01*
X86079691Y-97163200D01*
X87089691Y-97163200D01*
X87089691Y-98613200D01*
G37*
D11*
X80159000Y-63006000D03*
D12*
X87369000Y-63936000D03*
X87369000Y-69136000D03*
D13*
X90619000Y-69136000D03*
D11*
X80159000Y-72866000D03*
D14*
X92678000Y-92592000D03*
X91658000Y-92592000D03*
D15*
X98963000Y-67561000D03*
X98963000Y-66611000D03*
X98963000Y-65661000D03*
X101663000Y-65661000D03*
X101663000Y-66611000D03*
X101663000Y-67561000D03*
D16*
X115108000Y-90424000D03*
X116068000Y-90424000D03*
D17*
X132679000Y-100318000D03*
X132679000Y-94918000D03*
D18*
X111200000Y-96200000D03*
X111200000Y-95240000D03*
D19*
X124821000Y-102902000D03*
X125471000Y-102902000D03*
X126121000Y-102902000D03*
X126771000Y-102902000D03*
X126771000Y-107202000D03*
X126121000Y-107202000D03*
X125471000Y-107202000D03*
X124821000Y-107202000D03*
D20*
X133469000Y-75537000D03*
X133469000Y-76487000D03*
X133469000Y-77437000D03*
X130869000Y-77437000D03*
X130869000Y-75537000D03*
D18*
X96944000Y-67584000D03*
X96944000Y-66624000D03*
X110308000Y-67569000D03*
X110308000Y-66609000D03*
D21*
X116905000Y-95163000D03*
X116905000Y-94143000D03*
D16*
X125214000Y-101101000D03*
X126174000Y-101101000D03*
D18*
X121984000Y-67569000D03*
X121984000Y-66609000D03*
D22*
X90562582Y-92054600D03*
X90562582Y-93074600D03*
D23*
X86189691Y-96503200D03*
X86689691Y-96503200D03*
X87219691Y-96503200D03*
X87689691Y-96503200D03*
X88189691Y-96503200D03*
X88189691Y-99303200D03*
X87689691Y-99303200D03*
X87189691Y-99303200D03*
X86689691Y-99303200D03*
X86189691Y-99303200D03*
D24*
X121182000Y-96903000D03*
X118982000Y-96903000D03*
X118982000Y-95143000D03*
X121182000Y-95143000D03*
D14*
X93252000Y-100099000D03*
X92232000Y-100099000D03*
D25*
X98977000Y-98153000D03*
X98977000Y-98803000D03*
X98977000Y-99453000D03*
X98977000Y-100103000D03*
X94677000Y-100103000D03*
X94677000Y-99453000D03*
X94677000Y-98803000D03*
X94677000Y-98153000D03*
D21*
X116554000Y-99271000D03*
X116554000Y-98251000D03*
D16*
X94509000Y-96715000D03*
X95469000Y-96715000D03*
D15*
X123686000Y-67580000D03*
X123686000Y-66630000D03*
X123686000Y-65680000D03*
X126386000Y-65680000D03*
X126386000Y-66630000D03*
X126386000Y-67580000D03*
D21*
X126300000Y-99854000D03*
X126300000Y-98834000D03*
X115463000Y-99267000D03*
X115463000Y-98247000D03*
D16*
X115078000Y-83784000D03*
X116038000Y-83784000D03*
D26*
X83066000Y-96062000D03*
X82106000Y-96062000D03*
D27*
X87035982Y-91486800D03*
X88935982Y-91486800D03*
D18*
X133351000Y-73902000D03*
X133351000Y-72942000D03*
X130684000Y-82166000D03*
X130684000Y-81206000D03*
D26*
X89201582Y-101609000D03*
X88241582Y-101609000D03*
X123412000Y-83839000D03*
X122452000Y-83839000D03*
D14*
X86741182Y-101604400D03*
X85721182Y-101604400D03*
D21*
X114276000Y-99271000D03*
X114276000Y-98251000D03*
D26*
X132851190Y-104767000D03*
X131891190Y-104767000D03*
D28*
X112352000Y-78126000D03*
X112352000Y-79086000D03*
X113443000Y-79113000D03*
X113443000Y-80073000D03*
D26*
X123445000Y-88967000D03*
X122485000Y-88967000D03*
D14*
X135937190Y-104794000D03*
X134917190Y-104794000D03*
D28*
X114513000Y-80123000D03*
X114513000Y-81083000D03*
D18*
X128039000Y-67574000D03*
X128039000Y-66614000D03*
D29*
X92667000Y-91361600D03*
X93687000Y-91361600D03*
D16*
X119614000Y-98515000D03*
X120574000Y-98515000D03*
D28*
X123384000Y-102675000D03*
X123384000Y-103635000D03*
D20*
X133288000Y-84171000D03*
X133288000Y-85121000D03*
X133288000Y-86071000D03*
X130688000Y-86071000D03*
X130688000Y-84171000D03*
D26*
X123445000Y-90103000D03*
X122485000Y-90103000D03*
D16*
X115088000Y-82608000D03*
X116048000Y-82608000D03*
D14*
X83084382Y-94891000D03*
X82064382Y-94891000D03*
D21*
X118425000Y-77970000D03*
X118425000Y-76950000D03*
D26*
X123415000Y-85080000D03*
X122455000Y-85080000D03*
D16*
X115125000Y-91566000D03*
X116085000Y-91566000D03*
D28*
X112600000Y-95264000D03*
X112600000Y-96224000D03*
D18*
X116368000Y-67587000D03*
X116368000Y-66627000D03*
D30*
X113069000Y-87206000D03*
X119469000Y-87206000D03*
D18*
X130766000Y-73909000D03*
X130766000Y-72949000D03*
D22*
X97283000Y-93959000D03*
X97283000Y-94979000D03*
X125196000Y-98822000D03*
X125196000Y-99842000D03*
D28*
X114484000Y-93260000D03*
X114484000Y-94220000D03*
X113518000Y-94250000D03*
X113518000Y-95210000D03*
D18*
X103438000Y-67569000D03*
X103438000Y-66609000D03*
D31*
X95518000Y-91832000D03*
X95518000Y-93732000D03*
D22*
X128270000Y-102835000D03*
X128270000Y-103855000D03*
D29*
X100509000Y-99442000D03*
X101529000Y-99442000D03*
D27*
X87058382Y-93749000D03*
X88958382Y-93749000D03*
D15*
X111964000Y-67558000D03*
X111964000Y-66608000D03*
X111964000Y-65658000D03*
X114664000Y-65658000D03*
X114664000Y-66608000D03*
X114664000Y-67558000D03*
D21*
X117579000Y-102077000D03*
X117579000Y-101057000D03*
D18*
X111207000Y-79109000D03*
X111207000Y-78149000D03*
X133269000Y-82151000D03*
X133269000Y-81191000D03*
D32*
X83397000Y-99808000D03*
X83397000Y-97908000D03*
M02*
