G04 #@! TF.GenerationSoftware,KiCad,Pcbnew,7.0.5-0*
G04 #@! TF.CreationDate,2023-06-09T10:40:46+01:00*
G04 #@! TF.ProjectId,Hashat,48617368-6174-42e6-9b69-6361645f7063,rev?*
G04 #@! TF.SameCoordinates,Original*
G04 #@! TF.FileFunction,Copper,L1,Top*
G04 #@! TF.FilePolarity,Positive*
%FSLAX46Y46*%
G04 Gerber Fmt 4.6, Leading zero omitted, Abs format (unit mm)*
G04 Created by KiCad (PCBNEW 7.0.5-0) date 2023-06-09 10:40:46*
%MOMM*%
%LPD*%
G01*
G04 APERTURE LIST*
G04 Aperture macros list*
%AMRoundRect*
0 Rectangle with rounded corners*
0 $1 Rounding radius*
0 $2 $3 $4 $5 $6 $7 $8 $9 X,Y pos of 4 corners*
0 Add a 4 corners polygon primitive as box body*
4,1,4,$2,$3,$4,$5,$6,$7,$8,$9,$2,$3,0*
0 Add four circle primitives for the rounded corners*
1,1,$1+$1,$2,$3*
1,1,$1+$1,$4,$5*
1,1,$1+$1,$6,$7*
1,1,$1+$1,$8,$9*
0 Add four rect primitives between the rounded corners*
20,1,$1+$1,$2,$3,$4,$5,0*
20,1,$1+$1,$4,$5,$6,$7,0*
20,1,$1+$1,$6,$7,$8,$9,0*
20,1,$1+$1,$8,$9,$2,$3,0*%
%AMFreePoly0*
4,1,35,0.005000,-4.560000,0.003536,-4.563536,0.000000,-4.565000,-5.000000,-4.565000,-5.003536,-4.563536,-5.005000,-4.560000,-5.005000,-3.898000,-5.003536,-3.894464,-5.000000,-3.893000,-4.325000,-3.893000,-4.325000,-3.269700,-5.000000,-3.269700,-5.003536,-3.268236,-5.005000,-3.264700,-5.005000,-2.599700,-5.003536,-2.596164,-5.000000,-2.594700,-4.325000,-2.594700,-4.325000,-1.971400,-5.000000,-1.971400,
-5.003536,-1.969936,-5.005000,-1.966400,-5.005000,-1.301400,-5.003536,-1.297864,-5.000000,-1.296400,-4.325000,-1.296400,-4.325000,-0.673100,-5.000000,-0.673100,-5.003536,-0.671636,-5.005000,-0.668100,-5.005000,0.000000,-5.003536,0.003536,-5.000000,0.005000,0.005000,0.005000,0.005000,-4.560000,0.005000,-4.560000,$1*%
G04 Aperture macros list end*
G04 #@! TA.AperFunction,ComponentPad*
%ADD10R,1.700000X1.700000*%
G04 #@! TD*
G04 #@! TA.AperFunction,ComponentPad*
%ADD11O,1.700000X1.700000*%
G04 #@! TD*
G04 #@! TA.AperFunction,ComponentPad*
%ADD12C,2.500000*%
G04 #@! TD*
G04 #@! TA.AperFunction,ComponentPad*
%ADD13O,3.800000X1.200000*%
G04 #@! TD*
G04 #@! TA.AperFunction,ComponentPad*
%ADD14O,2.500000X1.200000*%
G04 #@! TD*
G04 #@! TA.AperFunction,ComponentPad*
%ADD15C,2.000000*%
G04 #@! TD*
G04 #@! TA.AperFunction,SMDPad,CuDef*
%ADD16R,2.700000X1.600000*%
G04 #@! TD*
G04 #@! TA.AperFunction,SMDPad,CuDef*
%ADD17RoundRect,0.250000X-1.100000X0.325000X-1.100000X-0.325000X1.100000X-0.325000X1.100000X0.325000X0*%
G04 #@! TD*
G04 #@! TA.AperFunction,SMDPad,CuDef*
%ADD18R,0.800000X0.700000*%
G04 #@! TD*
G04 #@! TA.AperFunction,SMDPad,CuDef*
%ADD19FreePoly0,0.000000*%
G04 #@! TD*
G04 #@! TA.AperFunction,SMDPad,CuDef*
%ADD20RoundRect,0.250000X0.475000X-0.250000X0.475000X0.250000X-0.475000X0.250000X-0.475000X-0.250000X0*%
G04 #@! TD*
G04 #@! TA.AperFunction,SMDPad,CuDef*
%ADD21RoundRect,0.250000X0.650000X-0.325000X0.650000X0.325000X-0.650000X0.325000X-0.650000X-0.325000X0*%
G04 #@! TD*
G04 #@! TA.AperFunction,SMDPad,CuDef*
%ADD22RoundRect,0.135000X0.000000X-0.295000X0.000000X0.295000X0.000000X0.295000X0.000000X-0.295000X0*%
G04 #@! TD*
G04 #@! TA.AperFunction,SMDPad,CuDef*
%ADD23RoundRect,0.067500X0.067500X-0.362500X0.067500X0.362500X-0.067500X0.362500X-0.067500X-0.362500X0*%
G04 #@! TD*
G04 #@! TA.AperFunction,SMDPad,CuDef*
%ADD24R,1.850000X6.250000*%
G04 #@! TD*
G04 #@! TA.AperFunction,SMDPad,CuDef*
%ADD25R,5.472000X6.250000*%
G04 #@! TD*
G04 #@! TA.AperFunction,SMDPad,CuDef*
%ADD26FreePoly0,180.000000*%
G04 #@! TD*
G04 #@! TA.AperFunction,SMDPad,CuDef*
%ADD27R,2.000000X3.100000*%
G04 #@! TD*
G04 #@! TA.AperFunction,ComponentPad*
%ADD28C,0.400000*%
G04 #@! TD*
G04 #@! TA.AperFunction,ViaPad*
%ADD29C,0.600000*%
G04 #@! TD*
G04 #@! TA.AperFunction,ViaPad*
%ADD30C,0.800000*%
G04 #@! TD*
G04 #@! TA.AperFunction,Conductor*
%ADD31C,0.500000*%
G04 #@! TD*
G04 #@! TA.AperFunction,Conductor*
%ADD32C,0.250000*%
G04 #@! TD*
G04 #@! TA.AperFunction,Conductor*
%ADD33C,0.254000*%
G04 #@! TD*
G04 #@! TA.AperFunction,Conductor*
%ADD34C,2.000000*%
G04 #@! TD*
G04 #@! TA.AperFunction,Conductor*
%ADD35C,0.200000*%
G04 #@! TD*
G04 APERTURE END LIST*
D10*
X139321000Y-95849000D03*
D11*
X139321000Y-98389000D03*
X139321000Y-100929000D03*
X139321000Y-103469000D03*
D12*
X81119000Y-69136000D03*
D13*
X80159000Y-63006000D03*
D14*
X87369000Y-63936000D03*
X87369000Y-69136000D03*
D15*
X90619000Y-69136000D03*
D13*
X80159000Y-72866000D03*
D16*
X93489000Y-88471000D03*
X93489000Y-85471000D03*
D17*
X90660929Y-76805214D03*
X90660929Y-79755214D03*
D18*
X83976445Y-85052678D03*
X83976445Y-83754378D03*
X83976445Y-82490978D03*
X83976445Y-81192678D03*
D19*
X83071445Y-80842678D03*
D20*
X93398000Y-67876000D03*
X93398000Y-65976000D03*
D21*
X90519000Y-88406000D03*
X90519000Y-85456000D03*
D22*
X113736400Y-91168600D03*
X114216400Y-91168600D03*
X114696400Y-91168600D03*
X115176400Y-91168600D03*
X115656400Y-91168600D03*
X116136400Y-91168600D03*
X116616400Y-91168600D03*
X117096400Y-91168600D03*
X117576400Y-91168600D03*
X118056400Y-91168600D03*
X118536400Y-91168600D03*
X119016400Y-91168600D03*
X119496400Y-91168600D03*
X119976400Y-91168600D03*
X120456400Y-91168600D03*
X120936400Y-91168600D03*
D23*
X120936400Y-83299400D03*
X120456400Y-83299400D03*
D22*
X119976400Y-83299400D03*
X119496400Y-83299400D03*
X119016400Y-83299400D03*
X118536400Y-83299400D03*
X118056400Y-83299400D03*
X117576400Y-83299400D03*
X117096400Y-83299400D03*
X116616400Y-83299400D03*
X116136400Y-83299400D03*
X115656400Y-83299400D03*
X115176400Y-83299400D03*
X114696400Y-83299400D03*
X114216400Y-83299400D03*
X113736400Y-83299400D03*
D24*
X114336400Y-87234000D03*
D25*
X118536400Y-87234000D03*
D18*
X81107864Y-74928114D03*
X81107864Y-76226414D03*
X81107864Y-77489814D03*
X81107864Y-78788114D03*
D26*
X82012864Y-79138114D03*
D10*
X139264000Y-73585000D03*
D11*
X139264000Y-76125000D03*
X139264000Y-78665000D03*
X139264000Y-81205000D03*
X139264000Y-83745000D03*
D27*
X78917000Y-90286000D03*
X87237000Y-90286000D03*
D17*
X87236000Y-80606000D03*
X87236000Y-83556000D03*
X94070929Y-76845214D03*
X94070929Y-79795214D03*
D10*
X85400000Y-57800000D03*
D11*
X85400000Y-60340000D03*
X87940000Y-57800000D03*
X87940000Y-60340000D03*
X90480000Y-57800000D03*
X90480000Y-60340000D03*
X93020000Y-57800000D03*
X93020000Y-60340000D03*
X95560000Y-57800000D03*
X95560000Y-60340000D03*
X98100000Y-57800000D03*
X98100000Y-60340000D03*
X100640000Y-57800000D03*
X100640000Y-60340000D03*
X103180000Y-57800000D03*
X103180000Y-60340000D03*
X105720000Y-57800000D03*
X105720000Y-60340000D03*
X108260000Y-57800000D03*
X108260000Y-60340000D03*
X110800000Y-57800000D03*
X110800000Y-60340000D03*
X113340000Y-57800000D03*
X113340000Y-60340000D03*
X115880000Y-57800000D03*
X115880000Y-60340000D03*
X118420000Y-57800000D03*
X118420000Y-60340000D03*
X120960000Y-57800000D03*
X120960000Y-60340000D03*
X123500000Y-57800000D03*
X123500000Y-60340000D03*
X126040000Y-57800000D03*
X126040000Y-60340000D03*
X128580000Y-57800000D03*
X128580000Y-60340000D03*
X131120000Y-57800000D03*
X131120000Y-60340000D03*
X133660000Y-57800000D03*
X133660000Y-60340000D03*
D28*
X87189691Y-97328200D03*
X88139691Y-97903200D03*
X86239691Y-97903200D03*
X87189691Y-98478200D03*
D29*
X108847000Y-104527000D03*
X90763745Y-81944278D03*
X120682000Y-86488333D03*
X119890000Y-99518000D03*
D30*
X116690000Y-102096000D03*
X136915000Y-86521000D03*
D29*
X117921000Y-89571000D03*
D30*
X97081000Y-65656000D03*
D29*
X112779000Y-81082000D03*
X119388000Y-88029666D03*
D30*
X129104000Y-65873000D03*
X123404000Y-104700000D03*
X117371000Y-65973000D03*
D29*
X119388000Y-84981000D03*
X88314000Y-85204000D03*
D30*
X96506000Y-96706000D03*
X121010000Y-66404500D03*
D29*
X120682000Y-89537000D03*
X92633745Y-83484278D03*
X117921000Y-84998000D03*
X119388000Y-86505333D03*
X87036000Y-85204000D03*
D30*
X132235000Y-78965000D03*
D29*
X84540782Y-101612400D03*
D30*
X91554000Y-65445000D03*
X104707000Y-66307000D03*
D29*
X119388000Y-89554000D03*
X94613745Y-83484278D03*
X116870000Y-96134000D03*
X89990782Y-97912400D03*
X120682000Y-88012666D03*
X116627000Y-86488333D03*
D30*
X100285000Y-100956000D03*
D29*
X116627000Y-84964000D03*
X116627000Y-88012666D03*
D30*
X130857000Y-104767000D03*
D29*
X117921000Y-86522333D03*
D30*
X97591000Y-96021000D03*
D29*
X113137000Y-99001000D03*
X112931000Y-93430000D03*
D30*
X127967000Y-107400500D03*
D29*
X116627000Y-89537000D03*
X92633745Y-81944278D03*
X132728000Y-80275000D03*
D30*
X109430000Y-66407000D03*
D29*
X90763745Y-83484278D03*
X132075000Y-74176000D03*
X89630000Y-82723000D03*
X91249000Y-100085000D03*
X119681000Y-92379000D03*
X120682000Y-84964000D03*
X117921000Y-88046666D03*
X94613745Y-81944278D03*
X130688000Y-80267000D03*
X120188381Y-81530045D03*
X84837000Y-97888000D03*
X85776000Y-85204000D03*
X130258000Y-109024000D03*
X127661000Y-101783000D03*
X102459000Y-98072500D03*
X102458896Y-100990000D03*
X134479000Y-84186000D03*
X134479000Y-75523000D03*
X134479000Y-86047000D03*
X98820000Y-95104000D03*
X95558000Y-75343000D03*
X85070000Y-96065000D03*
X128284000Y-104924000D03*
D30*
X104408000Y-68059000D03*
X123778000Y-101382000D03*
X129126000Y-68010000D03*
D29*
X133978000Y-104785000D03*
D30*
X93425000Y-97317000D03*
X117331000Y-68026000D03*
D29*
X87546671Y-102089293D03*
X114611000Y-89519000D03*
X111153000Y-84769000D03*
X114645000Y-88001000D03*
X92345000Y-90378000D03*
X114662000Y-86499000D03*
X111176000Y-89708000D03*
X114697000Y-84929000D03*
X124385000Y-90118000D03*
X129153000Y-70217000D03*
X124090000Y-81791000D03*
X123690000Y-70217000D03*
X99452000Y-68937000D03*
X111480000Y-70217000D03*
X113437000Y-70217000D03*
X124265000Y-83839000D03*
X122650000Y-92323000D03*
X114580000Y-95310000D03*
X113614000Y-96251000D03*
X125940000Y-88967000D03*
X122872000Y-81066500D03*
X125916500Y-85095000D03*
X112624000Y-97290000D03*
X113397000Y-78196000D03*
X114395000Y-79113000D03*
X115632000Y-80175000D03*
X114378000Y-97207000D03*
X115501000Y-97221000D03*
X116554000Y-97207000D03*
X116860900Y-93249000D03*
X119733000Y-80862000D03*
X125963872Y-97792872D03*
X127017500Y-96743000D03*
X117936900Y-82016000D03*
X122305000Y-78249000D03*
X117473500Y-78610000D03*
X120872000Y-76424000D03*
X115702000Y-79052000D03*
X106241000Y-67695000D03*
X118547000Y-104575000D03*
X130356000Y-68026000D03*
X108373000Y-65675000D03*
X127476000Y-68750500D03*
X118474000Y-103534000D03*
X117579000Y-100085000D03*
X83972000Y-79979000D03*
X89432582Y-102754600D03*
X90022582Y-99664600D03*
X82430000Y-79997000D03*
X103224000Y-65464000D03*
X116060000Y-65603000D03*
X122739000Y-94313000D03*
X119487000Y-93572000D03*
D31*
X93398000Y-65976000D02*
X92085000Y-65976000D01*
D32*
X119976400Y-81742026D02*
X119976400Y-83299400D01*
D31*
X92085000Y-65976000D02*
X91554000Y-65445000D01*
D32*
X120188381Y-81530045D02*
X119976400Y-81742026D01*
X119496400Y-91168600D02*
X119496400Y-92194400D01*
X119496400Y-92194400D02*
X119681000Y-92379000D01*
X139321000Y-103469000D02*
X129893000Y-103469000D01*
X129347000Y-103469000D02*
X127661000Y-101783000D01*
X130258000Y-109024000D02*
X129893000Y-108659000D01*
X129893000Y-108659000D02*
X129893000Y-103469000D01*
X129893000Y-103469000D02*
X129347000Y-103469000D01*
X102459000Y-98072500D02*
X102459000Y-100989896D01*
X102458896Y-98072604D02*
X102459000Y-98072500D01*
X102459000Y-100989896D02*
X102458896Y-100990000D01*
D33*
X96456000Y-95251000D02*
X98673000Y-95251000D01*
D34*
X134479000Y-96724000D02*
X134479000Y-86047000D01*
D33*
X95642000Y-96065000D02*
X96456000Y-95251000D01*
X85070000Y-96065000D02*
X95642000Y-96065000D01*
D34*
X136144000Y-98389000D02*
X134479000Y-96724000D01*
X134479000Y-86047000D02*
X134479000Y-84186000D01*
X134479000Y-73949000D02*
X133139000Y-72609000D01*
X134479000Y-84186000D02*
X134479000Y-82142000D01*
X133139000Y-72609000D02*
X94092000Y-72609000D01*
X139321000Y-98389000D02*
X136144000Y-98389000D01*
X134479000Y-82142000D02*
X134479000Y-75523000D01*
X94092000Y-72609000D02*
X90619000Y-69136000D01*
D33*
X98673000Y-95251000D02*
X98820000Y-95104000D01*
D34*
X134479000Y-75523000D02*
X134479000Y-73949000D01*
D33*
X78917000Y-94491000D02*
X78917000Y-90286000D01*
X87546671Y-102089293D02*
X86515293Y-102089293D01*
X86515293Y-102089293D02*
X78917000Y-94491000D01*
D31*
X129153000Y-70217000D02*
X130614000Y-70217000D01*
X100732000Y-70217000D02*
X111480000Y-70217000D01*
D32*
X120936400Y-83299400D02*
X120936400Y-82301600D01*
X125192000Y-91918000D02*
X123952000Y-93158000D01*
X121447000Y-81791000D02*
X124090000Y-81791000D01*
X120936400Y-92570400D02*
X120936400Y-91168600D01*
D31*
X130614000Y-70217000D02*
X135896000Y-70217000D01*
D32*
X125192000Y-83839000D02*
X125192000Y-90103000D01*
X124385000Y-90118000D02*
X125177000Y-90118000D01*
D31*
X111480000Y-70217000D02*
X113437000Y-70217000D01*
D32*
X123952000Y-93158000D02*
X122650000Y-93158000D01*
X125192000Y-82893000D02*
X125192000Y-83839000D01*
X124265000Y-83839000D02*
X125192000Y-83839000D01*
X125177000Y-90118000D02*
X125192000Y-90103000D01*
X122650000Y-93158000D02*
X121524000Y-93158000D01*
X124090000Y-81791000D02*
X125192000Y-82893000D01*
X125192000Y-90103000D02*
X125192000Y-91918000D01*
D31*
X113437000Y-70217000D02*
X123690000Y-70217000D01*
D32*
X120936400Y-82301600D02*
X121447000Y-81791000D01*
D31*
X99452000Y-68937000D02*
X100732000Y-70217000D01*
D32*
X121524000Y-93158000D02*
X120936400Y-92570400D01*
D31*
X123690000Y-70217000D02*
X129153000Y-70217000D01*
D32*
X122650000Y-92323000D02*
X122650000Y-93158000D01*
D31*
X135896000Y-70217000D02*
X139264000Y-73585000D01*
D32*
X114696400Y-91168600D02*
X114696400Y-95193600D01*
X114696400Y-95193600D02*
X114580000Y-95310000D01*
X114216400Y-91168600D02*
X114216400Y-94648295D01*
X113614000Y-95250695D02*
X113614000Y-96251000D01*
X114216400Y-94648295D02*
X113614000Y-95250695D01*
X120456400Y-92271000D02*
X120456400Y-92726796D01*
X126702000Y-85095000D02*
X126717000Y-85080000D01*
X120456400Y-91168600D02*
X120456400Y-92271000D01*
X121337604Y-93608000D02*
X124138396Y-93608000D01*
X124402500Y-81066500D02*
X122872000Y-81066500D01*
X119976400Y-91168600D02*
X119976400Y-91791000D01*
X126717000Y-88967000D02*
X126717000Y-85080000D01*
X126717000Y-85080000D02*
X126717000Y-83381000D01*
X120456400Y-82145204D02*
X121535104Y-81066500D01*
X125940000Y-88967000D02*
X126717000Y-88967000D01*
X121535104Y-81066500D02*
X122872000Y-81066500D01*
X120456400Y-92726796D02*
X121337604Y-93608000D01*
X126717000Y-91029396D02*
X126717000Y-88967000D01*
X124138396Y-93608000D02*
X126717000Y-91029396D01*
X120456400Y-83299400D02*
X120456400Y-82145204D01*
X119976400Y-91791000D02*
X120456400Y-92271000D01*
X125916500Y-85095000D02*
X126702000Y-85095000D01*
X126717000Y-83381000D02*
X124402500Y-81066500D01*
X113736400Y-94491899D02*
X113544149Y-94684150D01*
X112624000Y-95604299D02*
X112624000Y-97290000D01*
X113544149Y-94684150D02*
X112624000Y-95604299D01*
X113736400Y-91168600D02*
X113736400Y-94491899D01*
X113397000Y-78196000D02*
X113456000Y-78255000D01*
X113456000Y-78255000D02*
X113456000Y-80808000D01*
X113456000Y-80808000D02*
X113736400Y-81088400D01*
X113736400Y-81088400D02*
X113736400Y-83299400D01*
X114216400Y-79291600D02*
X114216400Y-83299400D01*
X114395000Y-79113000D02*
X114216400Y-79291600D01*
X114696400Y-81110600D02*
X115632000Y-80175000D01*
X114696400Y-83299400D02*
X114696400Y-81110600D01*
X115305000Y-96280000D02*
X114378000Y-97207000D01*
X115305000Y-95009695D02*
X115305000Y-96280000D01*
X115176400Y-91168600D02*
X115176400Y-94881095D01*
X115176400Y-94881095D02*
X115305000Y-95009695D01*
X115656400Y-91168600D02*
X115656400Y-94724699D01*
X115755000Y-94823299D02*
X115755000Y-96967000D01*
X115755000Y-96967000D02*
X115501000Y-97221000D01*
X115656400Y-94724699D02*
X115755000Y-94823299D01*
X116205000Y-96858000D02*
X116554000Y-97207000D01*
X116136400Y-91168600D02*
X116136400Y-94568303D01*
X116205000Y-94636903D02*
X116205000Y-96858000D01*
X116136400Y-94568303D02*
X116205000Y-94636903D01*
X117096400Y-93013500D02*
X117096400Y-91168600D01*
X116860900Y-93249000D02*
X117096400Y-93013500D01*
X119496400Y-83299400D02*
X119496400Y-81098600D01*
X119496400Y-81098600D02*
X119733000Y-80862000D01*
D35*
X125963872Y-97792872D02*
X125963872Y-96804128D01*
X127184000Y-82775686D02*
X124564314Y-80156000D01*
X119504000Y-80156000D02*
X119016400Y-80643600D01*
X126314950Y-96453050D02*
X126317500Y-96453050D01*
X124564314Y-80156000D02*
X119504000Y-80156000D01*
X126317500Y-96453050D02*
X127184000Y-95586550D01*
X119016400Y-80643600D02*
X119016400Y-83299400D01*
X125963872Y-96804128D02*
X126314950Y-96453050D01*
X127184000Y-95586550D02*
X127184000Y-82775686D01*
X119211000Y-79756000D02*
X118536400Y-80430600D01*
X127017500Y-96743000D02*
X127584000Y-96176500D01*
X124730000Y-79756000D02*
X119211000Y-79756000D01*
X127584000Y-96176500D02*
X127584000Y-82610000D01*
X118536400Y-80430600D02*
X118536400Y-83299400D01*
X127584000Y-82610000D02*
X124730000Y-79756000D01*
D32*
X117936900Y-82016000D02*
X117914262Y-82016000D01*
X117914262Y-82016000D02*
X117096400Y-82833862D01*
X117096400Y-82833862D02*
X117096400Y-83299400D01*
X118111400Y-80513600D02*
X118111400Y-80244600D01*
X118111400Y-80244600D02*
X120107000Y-78249000D01*
X120107000Y-78249000D02*
X122305000Y-78249000D01*
X116616400Y-82008600D02*
X118111400Y-80513600D01*
X116616400Y-83299400D02*
X116616400Y-82008600D01*
X117473500Y-80490176D02*
X116136400Y-81827276D01*
X116136400Y-81827276D02*
X116136400Y-83299400D01*
X117473500Y-78610000D02*
X117473500Y-80490176D01*
X116849000Y-80478280D02*
X116849000Y-78214000D01*
X116849000Y-78214000D02*
X118639000Y-76424000D01*
X115656400Y-83299400D02*
X115656400Y-81670880D01*
X115656400Y-81670880D02*
X116849000Y-80478280D01*
X118639000Y-76424000D02*
X120872000Y-76424000D01*
X116270000Y-80420884D02*
X116270000Y-80405000D01*
X115176400Y-83299400D02*
X115176400Y-81514484D01*
X116270000Y-79620000D02*
X115702000Y-79052000D01*
X116270000Y-80405000D02*
X116270000Y-79620000D01*
X115176400Y-81514484D02*
X116270000Y-80420884D01*
X119199000Y-96526000D02*
X119199000Y-103923000D01*
X118744000Y-96071000D02*
X119199000Y-96526000D01*
X130356000Y-68026000D02*
X128906500Y-69475500D01*
X128906500Y-69475500D02*
X108021500Y-69475500D01*
X118536400Y-95863400D02*
X118744000Y-96071000D01*
X108021500Y-69475500D02*
X106241000Y-67695000D01*
X118536400Y-91168600D02*
X118536400Y-95863400D01*
X119199000Y-103923000D02*
X118547000Y-104575000D01*
X118056400Y-96253400D02*
X118421000Y-96618000D01*
X118474000Y-96671000D02*
X118474000Y-103534000D01*
X110653500Y-68750500D02*
X127476000Y-68750500D01*
X118056400Y-91168600D02*
X118056400Y-96253400D01*
X108373000Y-65675000D02*
X108373000Y-66470000D01*
X118421000Y-96618000D02*
X118474000Y-96671000D01*
X108373000Y-66470000D02*
X110653500Y-68750500D01*
X117576400Y-93558805D02*
X117576400Y-100082400D01*
X117576400Y-92939195D02*
X117585900Y-92948695D01*
X117576400Y-100082400D02*
X117579000Y-100085000D01*
X117585900Y-92948695D02*
X117585900Y-93549305D01*
X117585900Y-93549305D02*
X117576400Y-93558805D01*
X117576400Y-91168600D02*
X117576400Y-92939195D01*
X83972000Y-79979000D02*
X83976445Y-79983445D01*
X83976445Y-79983445D02*
X83976445Y-81192678D01*
D33*
X90022582Y-99664600D02*
X90022582Y-102164600D01*
X90022582Y-102164600D02*
X89432582Y-102754600D01*
D32*
X82430000Y-79997000D02*
X82391000Y-80036000D01*
X82316750Y-79997000D02*
X81107864Y-78788114D01*
X82430000Y-79997000D02*
X82316750Y-79997000D01*
X98144000Y-65464000D02*
X103224000Y-65464000D01*
X93020000Y-60340000D02*
X98144000Y-65464000D01*
X115196000Y-64739000D02*
X116060000Y-65603000D01*
X95560000Y-60340000D02*
X99959000Y-64739000D01*
X99959000Y-64739000D02*
X115196000Y-64739000D01*
X120228000Y-94313000D02*
X122739000Y-94313000D01*
X119487000Y-93572000D02*
X119016400Y-93101400D01*
X119487000Y-93572000D02*
X120228000Y-94313000D01*
X119016400Y-93101400D02*
X119016400Y-91168600D01*
G04 #@! TA.AperFunction,Conductor*
G36*
X96035923Y-67811802D02*
G01*
X96098493Y-67829129D01*
X96144130Y-67875310D01*
X96160716Y-67938082D01*
X96139212Y-77410457D01*
X96122396Y-77473058D01*
X96076685Y-77519016D01*
X96014175Y-77536167D01*
X88856436Y-77590874D01*
X88856434Y-77590874D01*
X88840000Y-77591000D01*
X88839892Y-77607431D01*
X88839892Y-77607435D01*
X88831680Y-78866894D01*
X88822471Y-78913364D01*
X88776372Y-79027204D01*
X88776366Y-79027221D01*
X88774805Y-79031077D01*
X88773761Y-79035122D01*
X88773761Y-79035124D01*
X88759385Y-79090853D01*
X88759382Y-79090866D01*
X88758342Y-79094900D01*
X88757842Y-79099037D01*
X88757841Y-79099046D01*
X88742602Y-79225301D01*
X88742601Y-79225313D01*
X88742104Y-79229434D01*
X88742154Y-79233579D01*
X88742154Y-79233592D01*
X88756094Y-80374033D01*
X88739361Y-80438333D01*
X88692248Y-80485181D01*
X88627856Y-80501553D01*
X85803719Y-80451171D01*
X85742272Y-80433907D01*
X85697169Y-80388746D01*
X85679983Y-80327280D01*
X85663000Y-79302000D01*
X85646689Y-79301845D01*
X85646688Y-79301845D01*
X84430731Y-79290318D01*
X84364890Y-79271012D01*
X84331004Y-79249720D01*
X84331002Y-79249719D01*
X84325015Y-79245957D01*
X84318339Y-79243621D01*
X84318335Y-79243619D01*
X84159724Y-79188119D01*
X84159720Y-79188118D01*
X84153047Y-79185783D01*
X83972000Y-79165384D01*
X83964971Y-79166176D01*
X83797981Y-79184991D01*
X83797979Y-79184991D01*
X83790953Y-79185783D01*
X83784280Y-79188117D01*
X83784275Y-79188119D01*
X83625664Y-79243619D01*
X83625656Y-79243622D01*
X83618985Y-79245957D01*
X83613000Y-79249717D01*
X83612993Y-79249721D01*
X83592774Y-79262425D01*
X83524550Y-79281728D01*
X82832039Y-79275165D01*
X82783088Y-79263748D01*
X82783015Y-79263957D01*
X82781079Y-79263279D01*
X82781074Y-79263277D01*
X82776339Y-79261621D01*
X82776335Y-79261619D01*
X82617724Y-79206119D01*
X82617720Y-79206118D01*
X82611047Y-79203783D01*
X82604020Y-79202991D01*
X82604019Y-79202991D01*
X82438918Y-79184388D01*
X82398356Y-79172702D01*
X82363931Y-79148275D01*
X82053269Y-78837613D01*
X82025955Y-78796736D01*
X82016364Y-78748518D01*
X82016364Y-78426828D01*
X82024138Y-78383254D01*
X82046502Y-78345057D01*
X82048245Y-78343012D01*
X82051074Y-78340099D01*
X82129940Y-78234603D01*
X82179374Y-78112514D01*
X82195614Y-78050498D01*
X82212364Y-77919848D01*
X82208569Y-74483106D01*
X82203935Y-74448228D01*
X82208400Y-74394607D01*
X82234829Y-74347738D01*
X82278403Y-74316168D01*
X82331168Y-74305656D01*
X89036000Y-74430000D01*
X89046195Y-69578229D01*
X89053121Y-69537302D01*
X89101153Y-69398527D01*
X89131281Y-69188984D01*
X89121208Y-68977526D01*
X89071298Y-68771796D01*
X89059440Y-68745830D01*
X89048055Y-68693230D01*
X89049781Y-67871864D01*
X89066952Y-67808629D01*
X89113555Y-67762567D01*
X89176985Y-67746136D01*
X96035923Y-67811802D01*
G37*
G04 #@! TD.AperFunction*
G04 #@! TA.AperFunction,Conductor*
G36*
X81631874Y-74374581D02*
G01*
X81678097Y-74420655D01*
X81695069Y-74483673D01*
X81698864Y-77920415D01*
X81682624Y-77982431D01*
X81637972Y-78028429D01*
X81576466Y-78046503D01*
X80526285Y-78076534D01*
X80526283Y-78076534D01*
X80510000Y-78077000D01*
X80510017Y-78093291D01*
X80510017Y-78093294D01*
X80510342Y-78390843D01*
X80508849Y-78406102D01*
X80509178Y-78406135D01*
X80508571Y-78412296D01*
X80507364Y-78418366D01*
X80507364Y-79157862D01*
X80508570Y-79163925D01*
X80508571Y-79163935D01*
X80508794Y-79165054D01*
X80511214Y-79189491D01*
X80512981Y-80808417D01*
X80512981Y-80808420D01*
X80513000Y-80825000D01*
X82926983Y-80823363D01*
X82989924Y-80840162D01*
X83036064Y-80886152D01*
X83053067Y-80949040D01*
X83076886Y-90241764D01*
X83069879Y-90283520D01*
X83049436Y-90320598D01*
X81456357Y-92320287D01*
X81412969Y-92355060D01*
X81358839Y-92367772D01*
X77517698Y-92399245D01*
X77454574Y-92382888D01*
X77408081Y-92337165D01*
X77390671Y-92274323D01*
X77293044Y-80823363D01*
X77239081Y-74493803D01*
X77255556Y-74430429D01*
X77301612Y-74383880D01*
X77364805Y-74366730D01*
X81568804Y-74357812D01*
X81631874Y-74374581D01*
G37*
G04 #@! TD.AperFunction*
G04 #@! TA.AperFunction,Conductor*
G36*
X101375692Y-84110739D02*
G01*
X113422219Y-84175101D01*
X113471585Y-84185462D01*
X113471977Y-84185631D01*
X113478804Y-84189669D01*
X113634934Y-84235029D01*
X113671411Y-84237900D01*
X113801388Y-84237899D01*
X113837866Y-84235029D01*
X113941250Y-84204993D01*
X114011550Y-84204993D01*
X114114934Y-84235029D01*
X114151411Y-84237900D01*
X114281388Y-84237899D01*
X114317866Y-84235029D01*
X114421250Y-84204993D01*
X114491550Y-84204993D01*
X114594934Y-84235029D01*
X114631411Y-84237900D01*
X114761388Y-84237899D01*
X114797866Y-84235029D01*
X114901250Y-84204993D01*
X114971550Y-84204993D01*
X115074934Y-84235029D01*
X115111411Y-84237900D01*
X115150747Y-84237899D01*
X115213389Y-84254573D01*
X115259452Y-84300185D01*
X115276742Y-84362662D01*
X115291894Y-85906217D01*
X115291900Y-85907454D01*
X115291900Y-90104101D01*
X115275019Y-90167101D01*
X115228900Y-90213220D01*
X115165901Y-90230100D01*
X115111412Y-90230101D01*
X115108968Y-90230293D01*
X115108949Y-90230294D01*
X115081354Y-90232465D01*
X115081345Y-90232466D01*
X115074934Y-90232971D01*
X115068752Y-90234766D01*
X115068746Y-90234768D01*
X114971552Y-90263005D01*
X114901248Y-90263005D01*
X114804047Y-90234766D01*
X114804040Y-90234764D01*
X114797866Y-90232971D01*
X114791453Y-90232466D01*
X114791452Y-90232466D01*
X114763843Y-90230293D01*
X114763839Y-90230292D01*
X114761389Y-90230100D01*
X114758920Y-90230100D01*
X114633883Y-90230100D01*
X114633858Y-90230100D01*
X114631412Y-90230101D01*
X114628968Y-90230293D01*
X114628949Y-90230294D01*
X114601354Y-90232465D01*
X114601345Y-90232466D01*
X114594934Y-90232971D01*
X114588752Y-90234766D01*
X114588746Y-90234768D01*
X114491552Y-90263005D01*
X114421248Y-90263005D01*
X114324047Y-90234766D01*
X114324040Y-90234764D01*
X114317866Y-90232971D01*
X114311453Y-90232466D01*
X114311452Y-90232466D01*
X114283843Y-90230293D01*
X114283839Y-90230292D01*
X114281389Y-90230100D01*
X114278920Y-90230100D01*
X114153883Y-90230100D01*
X114153858Y-90230100D01*
X114151412Y-90230101D01*
X114148968Y-90230293D01*
X114148949Y-90230294D01*
X114121354Y-90232465D01*
X114121345Y-90232466D01*
X114114934Y-90232971D01*
X114108752Y-90234766D01*
X114108746Y-90234768D01*
X114011552Y-90263005D01*
X113941248Y-90263005D01*
X113844047Y-90234766D01*
X113844040Y-90234764D01*
X113837866Y-90232971D01*
X113831453Y-90232466D01*
X113831452Y-90232466D01*
X113803843Y-90230293D01*
X113803839Y-90230292D01*
X113801389Y-90230100D01*
X113798920Y-90230100D01*
X113673883Y-90230100D01*
X113673858Y-90230100D01*
X113671412Y-90230101D01*
X113668968Y-90230293D01*
X113668949Y-90230294D01*
X113641352Y-90232465D01*
X113641341Y-90232466D01*
X113634934Y-90232971D01*
X113628755Y-90234765D01*
X113628750Y-90234767D01*
X113486416Y-90276119D01*
X113486412Y-90276120D01*
X113478804Y-90278331D01*
X113471987Y-90282362D01*
X113471979Y-90282366D01*
X113390847Y-90330347D01*
X113355583Y-90340469D01*
X113356311Y-90342951D01*
X113340485Y-90347590D01*
X113324000Y-90348000D01*
X113309900Y-90356555D01*
X113309900Y-90356556D01*
X108697216Y-93155663D01*
X108631657Y-93173945D01*
X85965639Y-93139197D01*
X85901913Y-93121781D01*
X85855759Y-93074515D01*
X85839863Y-93010393D01*
X85898943Y-90356556D01*
X85958267Y-87691764D01*
X85975988Y-87630085D01*
X86021793Y-87585133D01*
X86083796Y-87568573D01*
X98617000Y-87525000D01*
X98617000Y-84222675D01*
X98633993Y-84159481D01*
X98680389Y-84113332D01*
X98743673Y-84096677D01*
X101375692Y-84110739D01*
G37*
G04 #@! TD.AperFunction*
G04 #@! TA.AperFunction,Conductor*
G36*
X95985557Y-79127670D02*
G01*
X96048239Y-79144721D01*
X96094098Y-79190730D01*
X96110944Y-79253468D01*
X96121942Y-86150636D01*
X96104989Y-86213962D01*
X96058517Y-86260201D01*
X95995106Y-86276834D01*
X86961151Y-86216879D01*
X83590307Y-86194508D01*
X83527663Y-86177351D01*
X83481887Y-86131270D01*
X83465145Y-86068512D01*
X83465145Y-82254738D01*
X83481196Y-82193198D01*
X83525259Y-82147336D01*
X83586107Y-82128839D01*
X84961958Y-82073805D01*
X84968326Y-82073713D01*
X89291000Y-82122000D01*
X89255566Y-79223158D01*
X89272029Y-79159335D01*
X89318465Y-79112555D01*
X89382168Y-79095622D01*
X95985557Y-79127670D01*
G37*
G04 #@! TD.AperFunction*
M02*
