M48
; DRILL file {KiCad 7.0.5-0} date 2023 June 09, Friday 10:40:50
; FORMAT={-:-/ absolute / inch / decimal}
; #@! TF.CreationDate,2023-06-09T10:40:50+01:00
; #@! TF.GenerationSoftware,Kicad,Pcbnew,7.0.5-0
; #@! TF.FileFunction,Plated,1,4,PTH
FMAT,2
INCH
; #@! TA.AperFunction,Plated,PTH,ViaDrill
T1C0.0118
; #@! TA.AperFunction,Plated,PTH,ComponentDrill
T2C0.0118
; #@! TA.AperFunction,Plated,PTH,ViaDrill
T3C0.0157
; #@! TA.AperFunction,Plated,PTH,ComponentDrill
T4C0.0236
; #@! TA.AperFunction,Plated,PTH,ComponentDrill
T5C0.0394
; #@! TA.AperFunction,Plated,PTH,ComponentDrill
T6C0.0512
; #@! TA.AperFunction,Plated,PTH,ComponentDrill
T7C0.0984
%
G90
G05
T1
X3.2453Y-3.1495
X3.306Y-3.1488
X3.3284Y-4.0005
X3.34Y-3.8539
X3.3492Y-3.7821
X3.377Y-3.3545
X3.4266Y-3.3545
X3.4467Y-4.0193
X3.4769Y-3.3545
X3.521Y-4.0455
X3.5287Y-3.2568
X3.5429Y-3.8548
X3.5442Y-3.9238
X3.5734Y-3.2262
X3.5734Y-3.2868
X3.5925Y-3.9404
X3.6356Y-3.5582
X3.647Y-3.2262
X3.647Y-3.2868
X3.725Y-3.2262
X3.725Y-3.2868
X3.7621Y-2.9663
X3.8906Y-3.7443
X3.9154Y-2.7141
X4.0338Y-3.976
X4.0338Y-3.8611
X4.0639Y-2.5773
X4.1827Y-2.6652
X4.2667Y-2.5856
X4.2853Y-4.1152
X4.3761Y-3.3374
X4.377Y-3.5318
X4.389Y-2.7644
X4.434Y-3.8303
X4.4401Y-3.1922
X4.4461Y-3.6783
X4.4542Y-3.8977
X4.4644Y-3.0786
X4.466Y-2.7644
X4.473Y-3.7894
X4.5031Y-3.827
X4.5037Y-3.1147
X4.511Y-3.7524
X4.5122Y-3.5244
X4.5136Y-3.4646
X4.5143Y-3.4055
X4.5156Y-3.3437
X4.5473Y-3.8276
X4.5524Y-3.1565
X4.5552Y-3.1123
X4.5693Y-2.5828
X4.5887Y-3.827
X4.5916Y-3.345
X4.5916Y-3.4051
X4.5916Y-3.4651
X4.5916Y-3.5251
X4.6008Y-3.6712
X4.6012Y-3.7848
X4.6249Y-3.0949
X4.6291Y-3.9404
X4.6426Y-3.3464
X4.6426Y-3.4064
X4.6426Y-3.4664
X4.6426Y-3.5264
X4.6432Y-3.229
X4.6643Y-4.0761
X4.6672Y-4.1171
X4.7003Y-3.3457
X4.7003Y-3.4057
X4.7003Y-3.4657
X4.7003Y-3.5257
X4.7042Y-3.6839
X4.7119Y-3.637
X4.7139Y-3.1835
X4.7201Y-3.918
X4.7318Y-3.2098
X4.7513Y-3.345
X4.7513Y-3.4051
X4.7513Y-3.4651
X4.7513Y-3.5251
X4.7587Y-3.0088
X4.8152Y-3.0807
X4.8287Y-3.6348
X4.8322Y-3.7131
X4.8375Y-3.1916
X4.8697Y-2.7644
X4.8854Y-3.2201
X4.8923Y-3.3007
X4.897Y-3.548
X4.9573Y-3.3502
X4.9583Y-3.5026
X4.9592Y-3.8501
X5.0007Y-3.8088
X5.0187Y-2.7067
X5.026Y-4.0072
X5.0506Y-4.1309
X5.0848Y-2.7644
X5.1283Y-4.2923
X5.1321Y-2.6782
X5.1452Y-3.1601
X5.1998Y-2.9203
X5.2255Y-3.1604
X5.2747Y-4.1254
X5.2944Y-2.9733
X5.2944Y-3.3144
X5.2944Y-3.3877
T2
X3.3953Y-3.8545
X3.4327Y-3.8318
X3.4327Y-3.8771
X3.4701Y-3.8545
T3
X3.6045Y-2.5766
X3.6781Y-3.8314
X3.7994Y-3.8073
X3.8221Y-2.5849
X3.8422Y-3.7804
X3.9482Y-3.9746
X4.1106Y-2.6795
X4.1223Y-2.6105
X4.3083Y-2.6144
X4.5941Y-4.0195
X4.6193Y-2.6782
X4.6209Y-2.5974
X4.7642Y-2.6144
X4.8584Y-4.122
X4.8731Y-3.9914
X5.0381Y-4.2284
X5.0828Y-2.5934
X5.0837Y-2.6776
X5.1519Y-4.1247
X5.2061Y-3.1089
X5.3904Y-3.4063
T5
X3.3622Y-2.2756
X3.3622Y-2.3756
X3.4622Y-2.2756
X3.4622Y-2.3756
X3.5622Y-2.2756
X3.5622Y-2.3756
X3.6622Y-2.2756
X3.6622Y-2.3756
X3.7622Y-2.2756
X3.7622Y-2.3756
X3.8622Y-2.2756
X3.8622Y-2.3756
X3.9622Y-2.2756
X3.9622Y-2.3756
X4.0622Y-2.2756
X4.0622Y-2.3756
X4.1622Y-2.2756
X4.1622Y-2.3756
X4.2622Y-2.2756
X4.2622Y-2.3756
X4.3622Y-2.2756
X4.3622Y-2.3756
X4.4622Y-2.2756
X4.4622Y-2.3756
X4.5622Y-2.2756
X4.5622Y-2.3756
X4.6622Y-2.2756
X4.6622Y-2.3756
X4.7622Y-2.2756
X4.7622Y-2.3756
X4.8622Y-2.2756
X4.8622Y-2.3756
X4.9622Y-2.2756
X4.9622Y-2.3756
X5.0622Y-2.2756
X5.0622Y-2.3756
X5.1622Y-2.2756
X5.1622Y-2.3756
X5.2622Y-2.2756
X5.2622Y-2.3756
X5.4828Y-2.897
X5.4828Y-2.997
X5.4828Y-3.097
X5.4828Y-3.197
X5.4828Y-3.297
X5.4851Y-3.7736
X5.4851Y-3.8736
X5.4851Y-3.9736
X5.4851Y-4.0736
T6
X3.5677Y-2.7219
T7
X3.1937Y-2.7219
T4
G00X3.1086Y-2.4806
M15
G01X3.2031Y-2.4806
M16
G05
G00X3.1086Y-2.8687
M15
G01X3.2031Y-2.8687
M16
G05
G00X3.4122Y-2.5172
M15
G01X3.4673Y-2.5172
M16
G05
G00X3.4122Y-2.7219
M15
G01X3.4673Y-2.7219
M16
G05
T0
M30
